<svg width="56" height="31" viewBox="0 0 56 31" fill="none" xmlns="http://www.w3.org/2000/svg">
<path d="M14.9403 0C17.5523 0 19.8773 0.487962 21.9153 1.46389C23.9819 2.41111 25.6611 3.77454 26.9528 5.55417C28.2444 7.30509 29.1199 9.34305 29.5792 11.6681H20.6667C20.1787 10.4625 19.4181 9.52963 18.3847 8.86945C17.3514 8.18056 16.1602 7.83611 14.8111 7.83611C12.9454 7.83611 11.4384 8.53935 10.2903 9.94583C9.14213 11.3236 8.56806 13.175 8.56806 15.5C8.56806 17.825 9.14213 19.6907 10.2903 21.0972C11.4384 22.5037 12.9454 23.2069 14.8111 23.2069C16.1602 23.2069 17.3514 22.8625 18.3847 22.1736C19.4181 21.4847 20.1787 20.5375 20.6667 19.3319H29.5792C28.8903 22.8912 27.2542 25.7329 24.6708 27.8569C22.1162 29.9523 18.8727 31 14.9403 31C11.9264 31 9.28565 30.3542 7.01806 29.0625C4.77917 27.7421 3.04259 25.9051 1.80833 23.5514C0.602778 21.1977 0 18.5139 0 15.5C0 12.4861 0.602778 9.80231 1.80833 7.44861C3.04259 5.09491 4.77917 3.27222 7.01806 1.98056C9.28565 0.660185 11.9264 0 14.9403 0Z" fill="#F9855B"/>
<path d="M41.4993 0.0307617C45.403 0.0307617 48.6035 0.977985 51.1007 2.87243C53.5979 4.76687 55.1049 7.3215 55.6215 10.5363H46.709C46.2498 9.70391 45.5753 9.04373 44.6854 8.55576C43.7956 8.0678 42.7479 7.82382 41.5424 7.82382C39.4757 7.82382 37.8252 8.52706 36.591 9.93354C35.3854 11.3113 34.7827 13.1627 34.7827 15.4877C34.7827 18.1285 35.4285 20.1377 36.7202 21.5155C38.0405 22.8646 39.9637 23.5391 42.4896 23.5391C43.9248 23.5391 45.1877 23.1947 46.2785 22.5058C47.3692 21.8169 48.2303 20.7979 48.8618 19.4488H40.4229V13.421H55.8799V21.8169C54.7891 24.3428 53.0382 26.5099 50.6271 28.3183C48.2447 30.0979 45.2308 30.9877 41.5854 30.9877C38.4854 30.9877 35.7729 30.3419 33.4479 29.0502C31.1229 27.7298 29.329 25.8928 28.066 23.5391C26.8317 21.1854 26.2146 18.5016 26.2146 15.4877C26.2146 12.4738 26.8317 9.80437 28.066 7.47937C29.329 5.12567 31.1086 3.30298 33.4049 2.01132C35.7012 0.690947 38.3993 0.0307617 41.4993 0.0307617Z" fill="#F9855B"/>
</svg>
